<svg viewBox="0 0 512 512" fill="none" xmlns="http://www.w3.org/2000/svg">
<path d="M0 143C0 64.0233 64.0233 0 143 0H369C447.977 0 512 64.0233 512 143V369C512 447.977 447.977 512 369 512H143C64.0233 512 0 447.977 0 369V143Z" fill="var(--color-brand-icon-bg)"/>
<path d="M291.151 198.707C325.553 230.033 325.553 288.062 291.151 319.388C269.918 338.723 247.227 360.39 228.386 380.708C226.946 382.26 225.485 383.852 224.003 385.482C178.734 435.27 96 404.226 96 334.863L96 183.233C96 113.869 178.734 82.8254 224.003 132.613C225.485 134.243 226.946 135.836 228.386 137.388C247.227 157.706 269.918 179.373 291.151 198.707Z" fill="white"/>
<path d="M280.638 132.539C328.83 82.8783 416.866 113.886 416.866 183.086V334.865C416.866 404.065 328.83 435.073 280.638 385.412C279.526 384.267 278.423 383.14 277.333 382.031C290.998 369.301 305.604 356.429 319.78 344.329C372.799 299.074 372.8 215.828 319.78 170.573C306.142 158.933 292.108 146.579 278.896 134.323C279.473 133.733 280.056 133.139 280.638 132.539Z" fill="#B2C6C2"/>
</svg>
