<svg viewBox="0 0 512 512" xmlns="http://www.w3.org/2000/svg">
    <path
            d="M512 256C512 397.385 397.385 512 256 512C114.615 512 0 397.385 0 256C0 114.615 114.615 0 256 0C397.385 0 512 114.615 512 256Z"
            fill="var(--color-brand-strong)"
    />
    <path
            d="M319.56 216.804C346.571 236.297 346.571 276.517 319.56 296.01L193.007 387.342C160.707 410.653 115.587 387.572 115.587 347.739L115.587 165.076C115.587 125.242 160.707 102.161 193.007 125.472L319.56 216.804Z"
            fill="white"
    />
    <path
            d="M194.068 296.01C167.057 276.517 167.057 236.297 194.068 216.804L320.621 125.472C352.921 102.161 398.041 125.242 398.041 165.075V347.738C398.041 387.572 352.921 410.653 320.621 387.342L194.068 296.01Z"
            fill="white"
    />
</svg>