<svg viewBox="0 0 212 200" fill="none" xmlns="http://www.w3.org/2000/svg">
<path d="M128.068 59.4015C150.644 79.9592 150.644 118.041 128.068 138.599C114.134 151.287 99.2428 165.506 86.8781 178.839C85.9336 179.858 84.9744 180.903 84.0021 181.972C54.2942 214.646 -6.53639e-06 194.273 -5.00487e-06 148.754L-1.65691e-06 49.2463C-1.2539e-07 3.72681 54.2942 -16.6459 84.0021 16.0276C84.9744 17.097 85.9336 18.1421 86.8781 19.1606C99.2428 32.4943 114.134 46.7133 128.068 59.4015Z" fill="#1F6F73"/>
<path d="M121.169 15.9786C152.795 -16.6111 210.568 3.73781 210.568 49.1504V148.755C210.568 194.168 152.795 214.516 121.169 181.927C120.439 181.175 119.715 180.435 119 179.708C127.967 171.354 137.553 162.906 146.855 154.966C181.649 125.267 181.65 70.6372 146.855 40.9385C137.906 33.2997 128.696 25.1923 120.025 17.1495C120.404 16.7621 120.787 16.3726 121.169 15.9786Z" fill="#6FA9AA"/>
</svg>
