<svg version="1.1" id="Layer_1" xmlns="http://www.w3.org/2000/svg" x="0px" y="0px"
	 viewBox="0 0 572 568" enable-background="new 0 0 572 568" xml:space="preserve">
<path fill="#BF3F94" opacity="1.000000" stroke="none"
	d="
M318.000000,569.000000 
	C297.312439,569.000000 276.624878,569.000000 255.679169,568.611572 
	C254.577927,567.818909 253.771896,567.192749 252.886032,567.044922 
	C244.510071,565.646973 236.058899,564.632690 227.745956,562.936523 
	C197.574478,556.780396 169.269943,545.495972 142.880508,529.837830 
	C115.422226,513.545410 91.201294,493.281067 70.794380,468.460663 
	C53.529976,447.462433 39.390640,424.728302 28.344055,399.901215 
	C14.771350,369.396759 7.096750,337.427673 5.278220,304.278687 
	C4.366922,287.667175 5.855863,270.863098 7.106315,254.209686 
	C8.590039,234.449570 13.606802,215.381058 19.920622,196.595108 
	C29.899288,166.904877 44.238483,139.681000 63.443066,114.879181 
	C75.918434,98.767830 89.643654,84.050812 105.336708,71.027184 
	C123.536171,55.923485 142.733475,42.420853 164.466187,32.966263 
	C178.035446,27.063097 191.842941,21.626499 205.804214,16.722727 
	C232.865021,7.217852 261.164917,4.927376 289.538330,4.246948 
	C300.302795,3.988803 311.114471,6.098368 321.917664,6.966106 
	C339.929443,8.412849 357.338562,12.875546 374.409485,18.340460 
	C392.122406,24.010902 409.131165,31.504488 425.435425,40.663147 
	C444.383514,51.306938 462.027985,63.765278 477.771393,78.587593 
	C488.927185,89.090706 499.122986,100.728371 508.891296,112.565971 
	C528.401733,136.209381 542.698608,162.913498 553.014099,191.749680 
	C559.959656,211.165359 565.143066,231.015442 567.018555,251.612350 
	C568.137329,263.899658 569.489807,276.195984 569.829041,288.513306 
	C570.054199,296.689392 569.009644,304.954163 567.934753,313.100220 
	C566.161011,326.542511 564.783569,340.129395 561.668457,353.283386 
	C554.942627,381.684753 544.054077,408.613434 528.703430,433.476776 
	C511.649261,461.099487 490.814270,485.659424 465.381958,505.976501 
	C445.271973,522.041748 423.512512,535.544617 399.752197,545.700806 
	C374.252960,556.600403 347.940918,564.351807 320.251282,567.082581 
	C319.445679,567.162109 318.747986,568.336243 318.000000,569.000000 
M126.067955,178.756927 
	C127.518440,176.937408 129.065231,175.185806 130.404053,173.287552 
	C140.449738,159.044281 152.524597,146.735947 165.981506,135.723846 
	C169.049057,133.213593 171.997543,130.557816 175.918213,127.922150 
	C188.798080,129.477692 197.292175,123.773163 202.893768,111.978760 
	C224.901382,101.745628 248.957504,98.947853 272.697113,93.257339 
	C283.249146,102.163422 296.962891,100.915306 305.194550,90.299675 
	C312.776001,80.522552 310.267273,65.779709 299.479248,58.868729 
	C289.968781,52.776138 280.817841,54.790329 271.402069,60.964661 
	C267.483521,60.585743 263.500031,59.554337 259.657196,59.936646 
	C238.894211,62.002289 218.937912,67.466484 199.704712,75.455673 
	C193.949631,77.846245 188.558411,81.112801 182.161896,84.090691 
	C171.912079,84.184753 164.671432,89.153572 159.079819,97.986237 
	C157.917892,98.612267 156.675537,99.124603 155.606033,99.881256 
	C137.000748,113.043976 120.469963,128.404617 106.691444,146.602905 
	C103.502632,150.814575 100.840172,155.424774 97.374863,160.268021 
	C90.875603,163.034576 85.681572,167.314056 83.891533,174.316422 
	C82.855362,178.369751 83.132866,182.758911 82.200104,187.241013 
	C81.165970,188.914917 79.821434,190.473267 79.148277,192.281555 
	C74.914917,203.653595 69.704132,214.819153 66.974800,226.554932 
	C63.338436,242.190887 61.670799,258.284698 58.848118,274.781128 
	C50.024101,286.420410 50.340752,295.089844 59.955624,307.879761 
	C61.719093,319.190948 62.294472,330.854553 65.521027,341.731750 
	C70.516350,358.571716 77.321457,374.874878 82.866188,391.865814 
	C79.298447,394.311890 75.579659,396.566406 72.190468,399.238922 
	C60.713638,408.288849 59.155205,424.969757 68.600189,436.151550 
	C77.790344,447.031647 91.845055,448.217621 105.428764,439.266602 
	C149.194809,410.426819 192.982239,381.619354 236.682297,352.679962 
	C239.453217,350.845032 241.303101,350.672913 244.146881,352.531311 
	C273.453979,371.683472 312.211975,369.269684 337.931549,346.857269 
	C365.346863,322.967041 373.373871,285.974274 358.207611,253.414291 
	C341.524780,217.598480 299.491394,199.438828 262.659485,212.134766 
	C223.852127,225.511642 201.551132,264.675873 210.508484,303.992462 
	C211.107437,306.621490 210.603806,307.878143 208.443268,309.243896 
	C201.415436,313.686249 194.505234,318.314850 187.554794,322.879425 
	C163.079300,338.953339 138.605911,355.030457 113.466545,370.861572 
	C112.511772,369.553009 111.158348,368.378876 110.664673,366.914825 
	C106.332191,354.066284 101.773720,341.273926 98.066399,328.241852 
	C95.729530,320.027222 94.734154,311.430969 93.313538,302.304016 
	C97.807579,293.759705 97.323784,285.337036 93.209099,276.374573 
	C93.451607,275.421509 93.841438,274.479645 93.914833,273.513733 
	C95.354256,254.572784 99.171471,236.159927 105.996292,218.398880 
	C108.068810,213.005280 110.047043,207.575424 112.600006,201.727707 
	C121.389442,196.722794 126.024391,189.350586 126.067955,178.756927 
z"/>
<path fill="transparent" opacity="1.000000" stroke="none"
	d="
M318.468628,569.000000 
	C318.747986,568.336243 319.445679,567.162109 320.251282,567.082581 
	C347.940918,564.351807 374.252960,556.600403 399.752197,545.700806 
	C423.512512,535.544617 445.271973,522.041748 465.381958,505.976501 
	C490.814270,485.659424 511.649261,461.099487 528.703430,433.476776 
	C544.054077,408.613434 554.942627,381.684753 561.668457,353.283386 
	C564.783569,340.129395 566.161011,326.542511 567.934753,313.100220 
	C569.009644,304.954163 570.054199,296.689392 569.829041,288.513306 
	C569.489807,276.195984 568.137329,263.899658 567.018555,251.612350 
	C565.143066,231.015442 559.959656,211.165359 553.014099,191.749680 
	C542.698608,162.913498 528.401733,136.209381 508.891296,112.565971 
	C499.122986,100.728371 488.927185,89.090706 477.771393,78.587593 
	C462.027985,63.765278 444.383514,51.306938 425.435425,40.663147 
	C409.131165,31.504488 392.122406,24.010902 374.409485,18.340460 
	C357.338562,12.875546 339.929443,8.412849 321.917664,6.966106 
	C311.114471,6.098368 300.302795,3.988803 289.538330,4.246948 
	C261.164917,4.927376 232.865021,7.217852 205.804214,16.722727 
	C191.842941,21.626499 178.035446,27.063097 164.466187,32.966263 
	C142.733475,42.420853 123.536171,55.923485 105.336708,71.027184 
	C89.643654,84.050812 75.918434,98.767830 63.443066,114.879181 
	C44.238483,139.681000 29.899288,166.904877 19.920622,196.595108 
	C13.606802,215.381058 8.590039,234.449570 7.106315,254.209686 
	C5.855863,270.863098 4.366922,287.667175 5.278220,304.278687 
	C7.096750,337.427673 14.771350,369.396759 28.344055,399.901215 
	C39.390640,424.728302 53.529976,447.462433 70.794380,468.460663 
	C91.201294,493.281067 115.422226,513.545410 142.880508,529.837830 
	C169.269943,545.495972 197.574478,556.780396 227.745956,562.936523 
	C236.058899,564.632690 244.510071,565.646973 252.886032,567.044922 
	C253.771896,567.192749 254.577927,567.818909 255.210510,568.611572 
	C170.350021,569.000000 85.700058,569.000000 1.025041,569.000000 
	C1.025041,379.720703 1.025041,190.441391 1.025041,1.081038 
	C191.575027,1.081038 382.150085,1.081038 572.862549,1.081038 
	C572.862549,190.333267 572.862549,379.666626 572.862549,569.000000 
	C488.237091,569.000000 403.587189,569.000000 318.468628,569.000000 
z"/>
<path fill="#FFFEFF" opacity="1.000000" stroke=""
	d="
M114.131729,371.106354 
	C138.605911,355.030457 163.079300,338.953339 187.554794,322.879425 
	C194.505234,318.314850 201.415436,313.686249 208.443268,309.243896 
	C210.603806,307.878143 211.107437,306.621490 210.508484,303.992462 
	C201.551132,264.675873 223.852127,225.511642 262.659485,212.134766 
	C299.491394,199.438828 341.524780,217.598480 358.207611,253.414291 
	C373.373871,285.974274 365.346863,322.967041 337.931549,346.857269 
	C312.211975,369.269684 273.453979,371.683472 244.146881,352.531311 
	C241.303101,350.672913 239.453217,350.845032 236.682297,352.679962 
	C192.982239,381.619354 149.194809,410.426819 105.428764,439.266602 
	C91.845055,448.217621 77.790344,447.031647 68.600189,436.151550 
	C59.155205,424.969757 60.713638,408.288849 72.190468,399.238922 
	C75.579659,396.566406 79.298447,394.311890 83.433441,391.511597 
	C94.044380,384.473724 104.088058,377.790039 114.131729,371.106354 
M318.992065,278.769867 
	C312.818512,259.735229 295.439545,250.060379 277.359375,255.593079 
	C260.832367,260.650452 250.903214,278.457916 255.349197,295.067200 
	C260.035278,312.573425 277.575348,322.993561 295.151703,318.713013 
	C312.357544,314.522675 322.810547,297.481873 318.992065,278.769867 
z"/>
<path fill="#D37BB6" opacity="1.000000" stroke="none"
	d="
M272.119934,92.906273 
	C248.957504,98.947853 224.901382,101.745628 202.493683,111.558914 
	C203.107010,103.584244 202.201370,96.236977 196.246689,91.109245 
	C192.535965,87.913849 187.462402,86.301064 183.000473,83.978027 
	C188.558411,81.112801 193.949631,77.846245 199.704712,75.455673 
	C218.937912,67.466484 238.894211,62.002289 259.657196,59.936646 
	C263.500031,59.554337 267.483521,60.585743 271.635132,61.368729 
	C263.397522,72.808258 263.474518,82.330498 272.119934,92.906273 
z"/>
<path fill="#D37BB6" opacity="1.000000" stroke="none" 
	d="
M113.799141,370.983948 
	C104.088058,377.790039 94.044380,384.473724 83.679932,391.281525 
	C77.321457,374.874878 70.516350,358.571716 65.521027,341.731750 
	C62.294472,330.854553 61.719093,319.190948 60.302326,307.570496 
	C66.126724,311.358398 72.470406,313.693909 78.910118,311.506897 
	C84.024857,309.769897 88.421532,305.918549 93.137016,303.005920 
	C94.734154,311.430969 95.729530,320.027222 98.066399,328.241852 
	C101.773720,341.273926 106.332191,354.066284 110.664673,366.914825 
	C111.158348,368.378876 112.511772,369.553009 113.799141,370.983948 
z"/>
<path fill="#D37BB6" opacity="1.000000" stroke="none" 
	d="
M112.068466,202.162186 
	C110.047043,207.575424 108.068810,213.005280 105.996292,218.398880 
	C99.171471,236.159927 95.354256,254.572784 93.914833,273.513733 
	C93.841438,274.479645 93.451607,275.421509 92.656906,276.568451 
	C88.113060,272.252289 83.316803,269.344818 77.208519,268.489075 
	C70.199524,267.507141 64.605247,270.488251 59.157478,274.181824 
	C61.670799,258.284698 63.338436,242.190887 66.974800,226.554932 
	C69.704132,214.819153 74.914917,203.653595 79.148277,192.281555 
	C79.821434,190.473267 81.165970,188.914917 82.784195,187.342865 
	C89.002991,200.713898 96.408226,204.511307 112.068466,202.162186 
z"/>
<path fill="#D37BB6" opacity="1.000000" stroke="none" 
	d="
M97.935516,159.851593 
	C100.840172,155.424774 103.502632,150.814575 106.691444,146.602905 
	C120.469963,128.404617 137.000748,113.043976 155.606033,99.881256 
	C156.675537,99.124603 157.917892,98.612267 159.446915,98.369308 
	C157.442566,107.924652 158.788086,116.207222 166.237732,122.615555 
	C168.798737,124.818573 172.059647,126.207939 175.000824,127.969009 
	C171.997543,130.557816 169.049057,133.213593 165.981506,135.723846 
	C152.524597,146.735947 140.449738,159.044281 130.404053,173.287552 
	C129.065231,175.185806 127.518440,176.937408 125.671860,178.513153 
	C123.201385,174.036667 121.833275,169.214462 118.899231,165.699295 
	C113.509140,159.241592 105.820061,158.636490 97.935516,159.851593 
z"/>
<path fill="#FFFEFE" opacity="1.000000" stroke="none" 
	d="
M272.408508,93.081802 
	C263.474518,82.330498 263.397522,72.808258 272.033020,61.477127 
	C280.817841,54.790329 289.968781,52.776138 299.479248,58.868729 
	C310.267273,65.779709 312.776001,80.522552 305.194550,90.299675 
	C296.962891,100.915306 283.249146,102.163422 272.408508,93.081802 
z"/>
<path fill="#FFFEFE" opacity="1.000000" stroke="none" 
	d="
M59.002800,274.481476 
	C64.605247,270.488251 70.199524,267.507141 77.208519,268.489075 
	C83.316803,269.344818 88.113060,272.252289 92.400146,276.888977 
	C97.323784,285.337036 97.807579,293.759705 93.225281,302.654968 
	C88.421532,305.918549 84.024857,309.769897 78.910118,311.506897 
	C72.470406,313.693909 66.126724,311.358398 60.336365,307.114136 
	C50.340752,295.089844 50.024101,286.420410 59.002800,274.481476 
z"/>
<path fill="#FFFEFE" opacity="1.000000" stroke="none" 
	d="
M175.459518,127.945580 
	C172.059647,126.207939 168.798737,124.818573 166.237732,122.615555 
	C158.788086,116.207222 157.442566,107.924652 159.792313,98.332596 
	C164.671432,89.153572 171.912079,84.184753 182.581177,84.034363 
	C187.462402,86.301064 192.535965,87.913849 196.246689,91.109245 
	C202.201370,96.236977 203.107010,103.584244 202.127655,111.603836 
	C197.292175,123.773163 188.798080,129.477692 175.459518,127.945580 
z"/>
<path fill="#FFFEFE" opacity="1.000000" stroke="none" 
	d="
M97.655182,160.059814 
	C105.820061,158.636490 113.509140,159.241592 118.899231,165.699295 
	C121.833275,169.214462 123.201385,174.036667 125.398697,178.660110 
	C126.024391,189.350586 121.389442,196.722794 112.334236,201.944946 
	C96.408226,204.511307 89.002991,200.713898 83.093719,187.220825 
	C83.132866,182.758911 82.855362,178.369751 83.891533,174.316422 
	C85.681572,167.314056 90.875603,163.034576 97.655182,160.059814 
z"/>
<path fill="#C04195" opacity="1.000000" stroke="none"
	d="
M319.068726,279.183838 
	C322.810547,297.481873 312.357544,314.522675 295.151703,318.713013 
	C277.575348,322.993561 260.035278,312.573425 255.349197,295.067200 
	C250.903214,278.457916 260.832367,260.650452 277.359375,255.593079 
	C295.439545,250.060379 312.818512,259.735229 319.068726,279.183838 
z"/>
</svg>