<svg viewBox="0 0 551 198" fill="none" xmlns="http://www.w3.org/2000/svg">
<path d="M509.25 11.5C510.583 8.99999 512.833 7.24999 516 6.25C519.167 5.24999 523.333 4.74998 528.5 4.74998C533.833 4.74998 538.083 5.24999 541.25 6.25C544.417 7.24999 546.583 8.99999 547.75 11.5C549.083 14 549.833 16.25 550 18.25C550.333 20.0833 550.5 22.9167 550.5 26.75V176C550.5 179.833 550.333 182.75 550 184.75C549.833 186.583 549.083 188.667 547.75 191C545.25 195.5 538.167 197.75 526.5 197.75C515 197.75 508.583 193.667 507.25 185.5C500.25 193.5 490.5 197.5 478 197.5C463 197.5 449.333 191 437 178C424.667 164.833 418.5 149.583 418.5 132.25C418.5 114.75 424.667 99.4167 437 86.25C449.5 73.0833 463.167 66.5 478 66.5C490.333 66.5 499.917 70.6667 506.75 79V26.5C506.75 22.6667 506.833 19.8333 507 18C507.333 16 508.083 13.8333 509.25 11.5Z" fill="white"/>
<path d="M227 130C227 110 234 93.5 248 80.5C262 67.5 278 61 296 61C314 61 329.917 67.5 343.75 80.5C357.583 93.3333 364.5 109.75 364.5 129.75C364.5 143.583 360.917 155.917 353.75 166.75C346.583 177.417 337.833 185.333 327.5 190.5C317.333 195.5 306.75 198 295.75 198C284.75 198 274.083 195.333 263.75 190C253.417 184.5 244.667 176.5 237.5 166C230.5 155.333 227 143.333 227 130Z" fill="white"/>
<path d="M370 4C380.167 4 386.5 6.25 389 10.75C390.333 13.25 391.083 15.5 391.25 17.5C391.583 19.5 391.75 22.4167 391.75 26.25V142C391.75 148 392.25 151.833 393.25 153.5C394.25 155 396.417 155.75 399.75 155.75C403.25 155.75 405.583 155.917 406.75 156.25C407.917 156.417 409.333 157.083 411 158.25C414.333 160.417 416 166.333 416 176C416 186.5 414.333 192.917 411 195.25C406.667 198.25 396.333 198.75 380 196.75C372.618 195.791 366.727 193.975 362.323 191.307C365.82 187.53 369.05 183.427 372.011 179.02L372.099 178.889C381.804 164.217 386.5 147.606 386.5 129.75C386.5 104.089 377.36 81.7242 358.815 64.4688C355.345 61.2076 351.738 58.2464 348 55.5908V26C348 22.1667 348.083 19.3333 348.25 17.5C348.583 15.5 349.333 13.25 350.5 10.75C352.833 6.25 359.333 4 370 4Z" fill="#B2C6C2"/>
<path d="M128.068 59.4015C150.644 79.9592 150.644 118.041 128.068 138.599C114.134 151.287 99.2428 165.506 86.8781 178.839C85.9336 179.858 84.9744 180.903 84.0021 181.972C54.2942 214.646 -6.53639e-06 194.273 -5.00487e-06 148.754L-1.65691e-06 49.2463C-1.2539e-07 3.72683 54.2942 -16.6458 84.0021 16.0276C84.9744 17.097 85.9336 18.1421 86.8781 19.1606C99.2428 32.4943 114.134 46.7133 128.068 59.4015Z" fill="white"/>
<path d="M121.169 15.9786C152.795 -16.6111 210.568 3.73783 210.568 49.1504V148.755C210.568 194.168 152.795 214.516 121.169 181.927C120.439 181.175 119.715 180.435 119 179.708C127.967 171.354 137.553 162.906 146.855 154.966C181.649 125.267 181.65 70.6372 146.855 40.9385C137.906 33.2998 128.696 25.1924 120.025 17.1495C120.404 16.7621 120.787 16.3726 121.169 15.9786Z" fill="#B2C6C2"/>
</svg>
